<?xml version="1.0" encoding="UTF-8" standalone="no"?>
<!DOCTYPE svg PUBLIC "-//W3C//DTD SVG 1.1//EN"
 "http://www.w3.org/Graphics/SVG/1.1/DTD/svg11.dtd">
<!-- Generated by graphviz version 2.43.0 (0)
 -->
<!-- Title: %3 Pages: 1 -->
<svg width="557pt" height="146pt"
 viewBox="0.00 0.00 557.20 146.00" xmlns="http://www.w3.org/2000/svg" xmlns:xlink="http://www.w3.org/1999/xlink">
<g id="graph0" class="graph" transform="scale(1 1) rotate(0) translate(4 142)">
<title>%3</title>
<!-- Start -->
<!-- FItem -->
<g id="node3" class="node start,disabled">
<title>FItem</title>
<path fill="#d0dce3" stroke="#d0dce3" d="M93.6,-138C93.6,-138 52.6,-138 52.6,-138 46.6,-138 40.6,-132 40.6,-126 40.6,-126 40.6,-114 40.6,-114 40.6,-108 46.6,-102 52.6,-102 52.6,-102 93.6,-102 93.6,-102 99.6,-102 105.6,-108 105.6,-114 105.6,-114 105.6,-126 105.6,-126 105.6,-132 99.6,-138 93.6,-138"/>
<text text-anchor="middle" x="73.1" y="-116.3" font-family="Inter,Arial" font-size="14.00" fill="#ffffff">F[Item]</text>
</g>
<!-- Start&#45;&gt;FItem -->
<g id="edge8" class="edge start,disabled">
<title>Start&#45;&gt;FItem</title>
<path fill="none" stroke="#d0dce3" stroke-width="2" d="M3.78,-120C7.02,-120 17.87,-120 30,-120"/>
<polygon fill="#d0dce3" stroke="#d0dce3" stroke-width="2" points="30.35,-123.5 40.35,-120 30.35,-116.5 30.35,-123.5"/>
</g>
<!-- Goal -->
<!-- FFSeller -->
<!-- FItem&#45;&gt;FFSeller -->
<!-- FSeller -->
<g id="node5" class="node goal">
<title>FSeller</title>
<path fill="#586e75" stroke="#ffffff" d="M487.1,-36C487.1,-36 439.1,-36 439.1,-36 433.1,-36 427.1,-30 427.1,-24 427.1,-24 427.1,-12 427.1,-12 427.1,-6 433.1,0 439.1,0 439.1,0 487.1,0 487.1,0 493.1,0 499.1,-6 499.1,-12 499.1,-12 499.1,-24 499.1,-24 499.1,-30 493.1,-36 487.1,-36"/>
<text text-anchor="middle" x="463.1" y="-14.3" font-family="Inter,Arial" font-size="14.00" fill="#ffffff">F[Seller]</text>
</g>
<!-- FItem&#45;&gt;FSeller -->
<!-- Item -->
<!-- FItem&#45;&gt;Item -->
<!-- FFSeller&#45;&gt;FSeller -->
<!-- FFSeller&#45;&gt;FSeller -->
<!-- FSeller&#45;&gt;Goal -->
<g id="edge9" class="edge goal">
<title>FSeller&#45;&gt;Goal</title>
<path fill="none" stroke="#586e75" stroke-width="2" d="M499.48,-18C512.29,-18 525.86,-18 535.09,-18"/>
<polygon fill="#586e75" stroke="#586e75" stroke-width="2" points="535.3,-21.5 545.3,-18 535.3,-14.5 535.3,-21.5"/>
</g>
<!-- UUID -->
<!-- Item&#45;&gt;UUID -->
<!-- UUID&#45;&gt;FSeller -->
</g>
</svg>
