<?xml version="1.0" encoding="UTF-8" standalone="no"?>
<!DOCTYPE svg PUBLIC "-//W3C//DTD SVG 1.1//EN"
 "http://www.w3.org/Graphics/SVG/1.1/DTD/svg11.dtd">
<!-- Generated by graphviz version 2.43.0 (0)
 -->
<!-- Title: %3 Pages: 1 -->
<svg width="539pt" height="146pt"
 viewBox="0.00 0.00 539.20 146.00" xmlns="http://www.w3.org/2000/svg" xmlns:xlink="http://www.w3.org/1999/xlink">
<g id="graph0" class="graph" transform="scale(1 1) rotate(0) translate(4 142)">
<title>%3</title>
<!-- Start -->
<!-- FItem -->
<g id="node3" class="node start">
<title>FItem</title>
<path fill="#586e75" stroke="#586e75" d="M93.6,-138C93.6,-138 52.6,-138 52.6,-138 46.6,-138 40.6,-132 40.6,-126 40.6,-126 40.6,-114 40.6,-114 40.6,-108 46.6,-102 52.6,-102 52.6,-102 93.6,-102 93.6,-102 99.6,-102 105.6,-108 105.6,-114 105.6,-114 105.6,-126 105.6,-126 105.6,-132 99.6,-138 93.6,-138"/>
<text text-anchor="middle" x="73.1" y="-116.3" font-family="Inter,Arial" font-size="14.00" fill="#ffffff">F[Item]</text>
</g>
<!-- Start&#45;&gt;FItem -->
<g id="edge8" class="edge start">
<title>Start&#45;&gt;FItem</title>
<path fill="none" stroke="#586e75" stroke-width="2" d="M3.78,-120C7.02,-120 17.87,-120 30,-120"/>
<polygon fill="#586e75" stroke="#586e75" stroke-width="2" points="30.35,-123.5 40.35,-120 30.35,-116.5 30.35,-123.5"/>
</g>
<!-- Goal -->
<!-- FFSeller -->
<!-- FItem&#45;&gt;FFSeller -->
<!-- FSeller -->
<g id="node5" class="node goal">
<title>FSeller</title>
<path fill="#586e75" stroke="#586e75" d="M469.1,-36C469.1,-36 421.1,-36 421.1,-36 415.1,-36 409.1,-30 409.1,-24 409.1,-24 409.1,-12 409.1,-12 409.1,-6 415.1,0 421.1,0 421.1,0 469.1,0 469.1,0 475.1,0 481.1,-6 481.1,-12 481.1,-12 481.1,-24 481.1,-24 481.1,-30 475.1,-36 469.1,-36"/>
<text text-anchor="middle" x="445.1" y="-14.3" font-family="Inter,Arial" font-size="14.00" fill="#ffffff">F[Seller]</text>
</g>
<!-- FItem&#45;&gt;FSeller -->
<g id="edge5" class="edge">
<title>FItem&#45;&gt;FSeller</title>
<path fill="none" stroke="#586e75" d="M105.65,-111.3C171.37,-93.18 323.18,-51.34 399.12,-30.4"/>
<polygon fill="#586e75" stroke="#586e75" points="400.17,-33.74 408.88,-27.71 398.31,-26.99 400.17,-33.74"/>
<text text-anchor="middle" x="246.1" y="-93.2" font-family="Inter,Arial" font-size="11.00" fill="#586e75">(sellerId⨾loadSeller).liftFlat</text>
</g>
<!-- Item -->
<g id="node6" class="node disabled">
<title>Item</title>
<path fill="#ffffff" stroke="#d0dce3" d="M88.1,-36C88.1,-36 58.1,-36 58.1,-36 52.1,-36 46.1,-30 46.1,-24 46.1,-24 46.1,-12 46.1,-12 46.1,-6 52.1,0 58.1,0 58.1,0 88.1,0 88.1,0 94.1,0 100.1,-6 100.1,-12 100.1,-12 100.1,-24 100.1,-24 100.1,-30 94.1,-36 88.1,-36"/>
<text text-anchor="middle" x="73.1" y="-14.3" font-family="Inter,Arial" font-size="14.00" fill="#d0dce3">Item</text>
</g>
<!-- FItem&#45;&gt;Item -->
<g id="edge1" class="edge lift,disabled">
<title>FItem&#45;&gt;Item</title>
<path fill="none" stroke="#d0dce3" stroke-dasharray="5,2" d="M73.1,-91.48C73.1,-73.1 73.1,-54.71 73.1,-36.33"/>
<polygon fill="#d0dce3" stroke="#d0dce3" points="69.6,-91.7 73.1,-101.7 76.6,-91.7 69.6,-91.7"/>
<text text-anchor="middle" x="57.6" y="-60.28" font-family="Inter,Arial" font-size="11.00" fill="#d0dce3">liftFlat</text>
</g>
<!-- FFSeller&#45;&gt;FSeller -->
<!-- FFSeller&#45;&gt;FSeller -->
<!-- FSeller&#45;&gt;Goal -->
<g id="edge9" class="edge goal">
<title>FSeller&#45;&gt;Goal</title>
<path fill="none" stroke="#586e75" stroke-width="2" d="M481.48,-18C494.29,-18 507.86,-18 517.09,-18"/>
<polygon fill="#586e75" stroke="#586e75" stroke-width="2" points="517.3,-21.5 527.3,-18 517.3,-14.5 517.3,-21.5"/>
</g>
<!-- UUID -->
<g id="node7" class="node disabled">
<title>UUID</title>
<path fill="#ffffff" stroke="#d0dce3" d="M267.1,-36C267.1,-36 225.1,-36 225.1,-36 219.1,-36 213.1,-30 213.1,-24 213.1,-24 213.1,-12 213.1,-12 213.1,-6 219.1,0 225.1,0 225.1,0 267.1,0 267.1,0 273.1,0 279.1,-6 279.1,-12 279.1,-12 279.1,-24 279.1,-24 279.1,-30 273.1,-36 267.1,-36"/>
<text text-anchor="middle" x="246.1" y="-14.3" font-family="Inter,Arial" font-size="14.00" fill="#d0dce3">SellerId</text>
</g>
<!-- Item&#45;&gt;UUID -->
<g id="edge3" class="edge disabled">
<title>Item&#45;&gt;UUID</title>
<path fill="none" stroke="#d0dce3" d="M100.44,-18C127.63,-18 170.47,-18 202.48,-18"/>
<polygon fill="#d0dce3" stroke="#d0dce3" points="202.89,-21.5 212.89,-18 202.89,-14.5 202.89,-21.5"/>
<text text-anchor="middle" x="142.6" y="-21.2" font-family="Inter,Arial" font-size="11.00" fill="#d0dce3">sellerId</text>
</g>
<!-- UUID&#45;&gt;FSeller -->
<g id="edge4" class="edge disabled">
<title>UUID&#45;&gt;FSeller</title>
<path fill="none" stroke="#d0dce3" d="M279.19,-18C311.64,-18 362.09,-18 398.64,-18"/>
<polygon fill="#d0dce3" stroke="#d0dce3" points="399.03,-21.5 409.03,-18 399.03,-14.5 399.03,-21.5"/>
<text text-anchor="middle" x="356.1" y="-21.2" font-family="Inter,Arial" font-size="11.00" fill="#d0dce3">loadSeller</text>
</g>
</g>
</svg>
