<?xml version="1.0" encoding="UTF-8" standalone="no"?>
<!DOCTYPE svg PUBLIC "-//W3C//DTD SVG 1.1//EN"
 "http://www.w3.org/Graphics/SVG/1.1/DTD/svg11.dtd">
<!-- Generated by graphviz version 2.43.0 (0)
 -->
<!-- Title: %3 Pages: 1 -->
<svg width="557pt" height="146pt"
 viewBox="0.00 0.00 557.20 146.00" xmlns="http://www.w3.org/2000/svg" xmlns:xlink="http://www.w3.org/1999/xlink">
<g id="graph0" class="graph" transform="scale(1 1) rotate(0) translate(4 142)">
<title>%3</title>
<!-- Start -->
<!-- FItem -->
<g id="node3" class="node start">
<title>FItem</title>
<path fill="#586e75" stroke="#ffffff" d="M93.6,-138C93.6,-138 52.6,-138 52.6,-138 46.6,-138 40.6,-132 40.6,-126 40.6,-126 40.6,-114 40.6,-114 40.6,-108 46.6,-102 52.6,-102 52.6,-102 93.6,-102 93.6,-102 99.6,-102 105.6,-108 105.6,-114 105.6,-114 105.6,-126 105.6,-126 105.6,-132 99.6,-138 93.6,-138"/>
<text text-anchor="middle" x="73.1" y="-116.3" font-family="Inter,Arial" font-size="14.00" fill="#ffffff">F[Item]</text>
</g>
<!-- Start&#45;&gt;FItem -->
<g id="edge8" class="edge start">
<title>Start&#45;&gt;FItem</title>
<path fill="none" stroke="#586e75" stroke-width="2" d="M3.78,-120C7.02,-120 17.87,-120 30,-120"/>
<polygon fill="#586e75" stroke="#586e75" stroke-width="2" points="30.35,-123.5 40.35,-120 30.35,-116.5 30.35,-123.5"/>
</g>
<!-- Goal -->
<!-- FFSeller -->
<g id="node4" class="node">
<title>FFSeller</title>
<path fill="#ffffff" stroke="#586e75" d="M496.6,-138C496.6,-138 429.6,-138 429.6,-138 423.6,-138 417.6,-132 417.6,-126 417.6,-126 417.6,-114 417.6,-114 417.6,-108 423.6,-102 429.6,-102 429.6,-102 496.6,-102 496.6,-102 502.6,-102 508.6,-108 508.6,-114 508.6,-114 508.6,-126 508.6,-126 508.6,-132 502.6,-138 496.6,-138"/>
<text text-anchor="middle" x="463.1" y="-116.3" font-family="Inter,Arial" font-size="14.00" fill="#586e75">F[F[Seller]]</text>
</g>
<!-- FItem&#45;&gt;FFSeller -->
<g id="edge6" class="edge">
<title>FItem&#45;&gt;FFSeller</title>
<path fill="none" stroke="#586e75" d="M105.85,-120C171.89,-120 324.75,-120 407.13,-120"/>
<polygon fill="#586e75" stroke="#586e75" points="407.3,-123.5 417.3,-120 407.3,-116.5 407.3,-123.5"/>
<text text-anchor="middle" x="255.1" y="-123.2" font-family="Inter,Arial" font-size="11.00" fill="#586e75">(sellerId⨾loadSeller).lift</text>
</g>
<!-- FSeller -->
<g id="node5" class="node goal">
<title>FSeller</title>
<path fill="#586e75" stroke="#ffffff" d="M487.1,-36C487.1,-36 439.1,-36 439.1,-36 433.1,-36 427.1,-30 427.1,-24 427.1,-24 427.1,-12 427.1,-12 427.1,-6 433.1,0 439.1,0 439.1,0 487.1,0 487.1,0 493.1,0 499.1,-6 499.1,-12 499.1,-12 499.1,-24 499.1,-24 499.1,-30 493.1,-36 487.1,-36"/>
<text text-anchor="middle" x="463.1" y="-14.3" font-family="Inter,Arial" font-size="14.00" fill="#ffffff">F[Seller]</text>
</g>
<!-- FItem&#45;&gt;FSeller -->
<g id="edge5" class="edge disabled">
<title>FItem&#45;&gt;FSeller</title>
<path fill="none" stroke="#d0dce3" d="M105.85,-111.65C174.67,-93.56 337.75,-50.69 417.14,-29.82"/>
<polygon fill="#d0dce3" stroke="#d0dce3" points="418.07,-33.19 426.85,-27.27 416.29,-26.42 418.07,-33.19"/>
<text text-anchor="middle" x="255.1" y="-95.2" font-family="Inter,Arial" font-size="11.00" fill="#d0dce3">(sellerId⨾loadSeller).lift⨾flatten</text>
</g>
<!-- Item -->
<g id="node6" class="node">
<title>Item</title>
<path fill="#ffffff" stroke="#586e75" d="M88.1,-36C88.1,-36 58.1,-36 58.1,-36 52.1,-36 46.1,-30 46.1,-24 46.1,-24 46.1,-12 46.1,-12 46.1,-6 52.1,0 58.1,0 58.1,0 88.1,0 88.1,0 94.1,0 100.1,-6 100.1,-12 100.1,-12 100.1,-24 100.1,-24 100.1,-30 94.1,-36 88.1,-36"/>
<text text-anchor="middle" x="73.1" y="-14.3" font-family="Inter,Arial" font-size="14.00" fill="#586e75">Item</text>
</g>
<!-- FItem&#45;&gt;Item -->
<g id="edge1" class="edge lift">
<title>FItem&#45;&gt;Item</title>
<path fill="none" stroke="#586e75" stroke-dasharray="5,2" d="M73.1,-91.84C73.1,-74.09 73.1,-51.68 73.1,-36.24"/>
<polygon fill="#586e75" stroke="#586e75" points="69.6,-91.92 73.1,-101.92 76.6,-91.92 69.6,-91.92"/>
<text text-anchor="middle" x="64.1" y="-66.2" font-family="Inter,Arial" font-size="11.00" fill="#586e75">lift</text>
</g>
<!-- FFSeller&#45;&gt;FSeller -->
<g id="edge2" class="edge lift">
<title>FFSeller&#45;&gt;FSeller</title>
<path fill="none" stroke="#586e75" stroke-dasharray="5,2" d="M484.11,-93.02C493.53,-74.12 491.84,-55.22 479.02,-36.33"/>
<polygon fill="#586e75" stroke="#586e75" points="481.06,-91.3 479,-101.7 487.09,-94.85 481.06,-91.3"/>
<text text-anchor="middle" x="483.6" y="-60.3" font-family="Inter,Arial" font-size="11.00" fill="#586e75">lift</text>
</g>
<!-- FFSeller&#45;&gt;FSeller -->
<g id="edge7" class="edge required,disabled">
<title>FFSeller&#45;&gt;FSeller</title>
<path fill="none" stroke="#d0dce3" stroke-dasharray="1,5" d="M447.2,-101.7C434.37,-82.8 432.66,-63.91 442.07,-45.01"/>
<polygon fill="#d0dce3" stroke="#d0dce3" points="445.13,-46.72 447.18,-36.33 439.09,-43.17 445.13,-46.72"/>
<text text-anchor="middle" x="419.1" y="-60.12" font-family="Inter,Arial" font-size="11.00" fill="#d0dce3">flatten</text>
</g>
<!-- FSeller&#45;&gt;Goal -->
<g id="edge9" class="edge goal">
<title>FSeller&#45;&gt;Goal</title>
<path fill="none" stroke="#586e75" stroke-width="2" d="M499.48,-18C512.29,-18 525.86,-18 535.09,-18"/>
<polygon fill="#586e75" stroke="#586e75" stroke-width="2" points="535.3,-21.5 545.3,-18 535.3,-14.5 535.3,-21.5"/>
</g>
<!-- UUID -->
<g id="node7" class="node">
<title>UUID</title>
<path fill="#ffffff" stroke="#586e75" d="M276.1,-36C276.1,-36 234.1,-36 234.1,-36 228.1,-36 222.1,-30 222.1,-24 222.1,-24 222.1,-12 222.1,-12 222.1,-6 228.1,0 234.1,0 234.1,0 276.1,0 276.1,0 282.1,0 288.1,-6 288.1,-12 288.1,-12 288.1,-24 288.1,-24 288.1,-30 282.1,-36 276.1,-36"/>
<text text-anchor="middle" x="255.1" y="-14.3" font-family="Inter,Arial" font-size="14.00" fill="#586e75">SellerId</text>
</g>
<!-- Item&#45;&gt;UUID -->
<g id="edge3" class="edge">
<title>Item&#45;&gt;UUID</title>
<path fill="none" stroke="#586e75" d="M100.27,-18C129.43,-18 177.01,-18 211.54,-18"/>
<polygon fill="#586e75" stroke="#586e75" points="211.8,-21.5 221.8,-18 211.8,-14.5 211.8,-21.5"/>
<text text-anchor="middle" x="142.6" y="-21.2" font-family="Inter,Arial" font-size="11.00" fill="#586e75">sellerId</text>
</g>
<!-- UUID&#45;&gt;FSeller -->
<g id="edge4" class="edge">
<title>UUID&#45;&gt;FSeller</title>
<path fill="none" stroke="#586e75" d="M288.29,-18C322.88,-18 378.12,-18 417.03,-18"/>
<polygon fill="#586e75" stroke="#586e75" points="417.04,-21.5 427.04,-18 417.04,-14.5 417.04,-21.5"/>
<text text-anchor="middle" x="374.1" y="-21.2" font-family="Inter,Arial" font-size="11.00" fill="#586e75">loadSeller</text>
</g>
</g>
</svg>
