<?xml version="1.0" encoding="UTF-8" standalone="no"?>
<!DOCTYPE svg PUBLIC "-//W3C//DTD SVG 1.1//EN"
 "http://www.w3.org/Graphics/SVG/1.1/DTD/svg11.dtd">
<!-- Generated by graphviz version 2.43.0 (0)
 -->
<!-- Title: %3 Pages: 1 -->
<svg width="662pt" height="146pt"
 viewBox="0.00 0.00 662.20 146.00" xmlns="http://www.w3.org/2000/svg" xmlns:xlink="http://www.w3.org/1999/xlink">
<g id="graph0" class="graph" transform="scale(1 1) rotate(0) translate(4 142)">
<title>%3</title>
<!-- Start -->
<!-- FItem -->
<g id="node3" class="node lifted">
<title>FItem</title>
<path fill="#ffffff" stroke="#586e75" d="M93.6,-138C93.6,-138 52.6,-138 52.6,-138 46.6,-138 40.6,-132 40.6,-126 40.6,-126 40.6,-114 40.6,-114 40.6,-108 46.6,-102 52.6,-102 52.6,-102 93.6,-102 93.6,-102 99.6,-102 105.6,-108 105.6,-114 105.6,-114 105.6,-126 105.6,-126 105.6,-132 99.6,-138 93.6,-138"/>
<text text-anchor="middle" x="73.1" y="-116.3" font-family="Inter,Arial" font-size="14.00" fill="#586e75">F[Item]</text>
</g>
<!-- Start&#45;&gt;FItem -->
<g id="edge2" class="edge">
<title>Start&#45;&gt;FItem</title>
<path fill="none" stroke="#586e75" d="M3.78,-120C7.02,-120 17.87,-120 30,-120"/>
<polygon fill="#586e75" stroke="#586e75" points="30.35,-123.5 40.35,-120 30.35,-116.5 30.35,-123.5"/>
</g>
<!-- Goal -->
<!-- FSeller -->
<g id="node4" class="node lifted">
<title>FSeller</title>
<path fill="#ffffff" stroke="#586e75" d="M475.6,-138C475.6,-138 427.6,-138 427.6,-138 421.6,-138 415.6,-132 415.6,-126 415.6,-126 415.6,-114 415.6,-114 415.6,-108 421.6,-102 427.6,-102 427.6,-102 475.6,-102 475.6,-102 481.6,-102 487.6,-108 487.6,-114 487.6,-114 487.6,-126 487.6,-126 487.6,-132 481.6,-138 475.6,-138"/>
<text text-anchor="middle" x="451.6" y="-116.3" font-family="Inter,Arial" font-size="14.00" fill="#586e75">F[Seller]</text>
</g>
<!-- FItem&#45;&gt;FSeller -->
<g id="edge3" class="edge">
<title>FItem&#45;&gt;FSeller</title>
<path fill="none" stroke="#586e75" d="M105.88,-120C172.67,-120 327.84,-120 405.14,-120"/>
<polygon fill="#586e75" stroke="#586e75" points="405.52,-123.5 415.52,-120 405.52,-116.5 405.52,-123.5"/>
<text text-anchor="middle" x="258.1" y="-123.2" font-family="Inter,Arial" font-size="11.00" fill="#586e75">flatMap(sellerId∘loadSeller)</text>
</g>
<!-- Item -->
<g id="node6" class="node">
<title>Item</title>
<path fill="#ffffff" stroke="#586e75" d="M88.1,-36C88.1,-36 58.1,-36 58.1,-36 52.1,-36 46.1,-30 46.1,-24 46.1,-24 46.1,-12 46.1,-12 46.1,-6 52.1,0 58.1,0 58.1,0 88.1,0 88.1,0 94.1,0 100.1,-6 100.1,-12 100.1,-12 100.1,-24 100.1,-24 100.1,-30 94.1,-36 88.1,-36"/>
<text text-anchor="middle" x="73.1" y="-14.3" font-family="Inter,Arial" font-size="14.00" fill="#586e75">Item</text>
</g>
<!-- FItem&#45;&gt;Item -->
<!-- FBoolean -->
<g id="node5" class="node lifted">
<title>FBoolean</title>
<path fill="#ffffff" stroke="#586e75" d="M601.6,-138C601.6,-138 536.6,-138 536.6,-138 530.6,-138 524.6,-132 524.6,-126 524.6,-126 524.6,-114 524.6,-114 524.6,-108 530.6,-102 536.6,-102 536.6,-102 601.6,-102 601.6,-102 607.6,-102 613.6,-108 613.6,-114 613.6,-114 613.6,-126 613.6,-126 613.6,-132 607.6,-138 601.6,-138"/>
<text text-anchor="middle" x="569.1" y="-116.3" font-family="Inter,Arial" font-size="14.00" fill="#586e75">F[Boolean]</text>
</g>
<!-- FSeller&#45;&gt;FBoolean -->
<!-- FBoolean&#45;&gt;Goal -->
<g id="edge8" class="edge">
<title>FBoolean&#45;&gt;Goal</title>
<path fill="none" stroke="#586e75" d="M613.61,-120C623.65,-120 633.46,-120 640.56,-120"/>
<polygon fill="#586e75" stroke="#586e75" points="640.57,-123.5 650.57,-120 640.57,-116.5 640.57,-123.5"/>
</g>
<!-- Item&#45;&gt;FSeller -->
<g id="edge7" class="edge">
<title>Item&#45;&gt;FSeller</title>
<path fill="none" stroke="#586e75" d="M100.22,-26.74C107.74,-29.18 115.97,-31.77 123.6,-34 223.66,-63.3 342.28,-93.34 405.54,-108.99"/>
<polygon fill="#586e75" stroke="#586e75" points="405.03,-112.47 415.58,-111.47 406.71,-105.67 405.03,-112.47"/>
<text text-anchor="middle" x="258.1" y="-92.2" font-family="Inter,Arial" font-size="11.00" fill="#586e75">sellerId∘loadSeller</text>
</g>
<!-- SellerId -->
<!-- Item&#45;&gt;SellerId -->
<!-- SellerId&#45;&gt;FSeller -->
</g>
</svg>
