<?xml version="1.0" encoding="UTF-8" standalone="no"?>
<!DOCTYPE svg PUBLIC "-//W3C//DTD SVG 1.1//EN"
 "http://www.w3.org/Graphics/SVG/1.1/DTD/svg11.dtd">
<!-- Generated by graphviz version 2.43.0 (0)
 -->
<!-- Title: %3 Pages: 1 -->
<svg width="575pt" height="116pt"
 viewBox="0.00 0.00 575.20 116.00" xmlns="http://www.w3.org/2000/svg" xmlns:xlink="http://www.w3.org/1999/xlink">
<g id="graph0" class="graph" transform="scale(1 1) rotate(0) translate(4 112)">
<title>%3</title>
<!-- Start -->
<!-- FItem -->
<g id="node3" class="node lifted">
<title>FItem</title>
<path fill="#ffffff" stroke="#586e75" d="M93.6,-108C93.6,-108 52.6,-108 52.6,-108 46.6,-108 40.6,-102 40.6,-96 40.6,-96 40.6,-84 40.6,-84 40.6,-78 46.6,-72 52.6,-72 52.6,-72 93.6,-72 93.6,-72 99.6,-72 105.6,-78 105.6,-84 105.6,-84 105.6,-96 105.6,-96 105.6,-102 99.6,-108 93.6,-108"/>
<text text-anchor="middle" x="73.1" y="-86.3" font-family="Inter,Arial" font-size="14.00" fill="#586e75">F[Item]</text>
</g>
<!-- Start&#45;&gt;FItem -->
<g id="edge2" class="edge">
<title>Start&#45;&gt;FItem</title>
<path fill="none" stroke="#586e75" d="M3.78,-90C7.02,-90 17.87,-90 30,-90"/>
<polygon fill="#586e75" stroke="#586e75" points="30.35,-93.5 40.35,-90 30.35,-86.5 30.35,-93.5"/>
</g>
<!-- Goal -->
<!-- FSeller -->
<g id="node4" class="node lifted">
<title>FSeller</title>
<path fill="#ffffff" stroke="#586e75" d="M388.6,-108C388.6,-108 340.6,-108 340.6,-108 334.6,-108 328.6,-102 328.6,-96 328.6,-96 328.6,-84 328.6,-84 328.6,-78 334.6,-72 340.6,-72 340.6,-72 388.6,-72 388.6,-72 394.6,-72 400.6,-78 400.6,-84 400.6,-84 400.6,-96 400.6,-96 400.6,-102 394.6,-108 388.6,-108"/>
<text text-anchor="middle" x="364.6" y="-86.3" font-family="Inter,Arial" font-size="14.00" fill="#586e75">F[Seller]</text>
</g>
<!-- FItem&#45;&gt;FSeller -->
<!-- Item -->
<g id="node6" class="node">
<title>Item</title>
<path fill="#ffffff" stroke="#586e75" d="M88.1,-36C88.1,-36 58.1,-36 58.1,-36 52.1,-36 46.1,-30 46.1,-24 46.1,-24 46.1,-12 46.1,-12 46.1,-6 52.1,0 58.1,0 58.1,0 88.1,0 88.1,0 94.1,0 100.1,-6 100.1,-12 100.1,-12 100.1,-24 100.1,-24 100.1,-30 94.1,-36 88.1,-36"/>
<text text-anchor="middle" x="73.1" y="-14.3" font-family="Inter,Arial" font-size="14.00" fill="#586e75">Item</text>
</g>
<!-- FItem&#45;&gt;Item -->
<!-- FBoolean -->
<g id="node5" class="node lifted">
<title>FBoolean</title>
<path fill="#ffffff" stroke="#586e75" d="M514.6,-108C514.6,-108 449.6,-108 449.6,-108 443.6,-108 437.6,-102 437.6,-96 437.6,-96 437.6,-84 437.6,-84 437.6,-78 443.6,-72 449.6,-72 449.6,-72 514.6,-72 514.6,-72 520.6,-72 526.6,-78 526.6,-84 526.6,-84 526.6,-96 526.6,-96 526.6,-102 520.6,-108 514.6,-108"/>
<text text-anchor="middle" x="482.1" y="-86.3" font-family="Inter,Arial" font-size="14.00" fill="#586e75">F[Boolean]</text>
</g>
<!-- FSeller&#45;&gt;FBoolean -->
<!-- FBoolean&#45;&gt;Goal -->
<g id="edge7" class="edge">
<title>FBoolean&#45;&gt;Goal</title>
<path fill="none" stroke="#586e75" d="M526.61,-90C536.65,-90 546.46,-90 553.56,-90"/>
<polygon fill="#586e75" stroke="#586e75" points="553.57,-93.5 563.57,-90 553.57,-86.5 553.57,-93.5"/>
</g>
<!-- SellerId -->
<g id="node7" class="node">
<title>SellerId</title>
<path fill="#ffffff" stroke="#586e75" d="M229.6,-36C229.6,-36 199.6,-36 199.6,-36 193.6,-36 187.6,-30 187.6,-24 187.6,-24 187.6,-12 187.6,-12 187.6,-6 193.6,0 199.6,0 199.6,0 229.6,0 229.6,0 235.6,0 241.6,-6 241.6,-12 241.6,-12 241.6,-24 241.6,-24 241.6,-30 235.6,-36 229.6,-36"/>
<text text-anchor="middle" x="214.6" y="-14.3" font-family="Inter,Arial" font-size="14.00" fill="#586e75">UUID</text>
</g>
<!-- Item&#45;&gt;SellerId -->
<g id="edge6" class="edge">
<title>Item&#45;&gt;SellerId</title>
<path fill="none" stroke="#586e75" d="M100.34,-18C122.06,-18 153.17,-18 177.28,-18"/>
<polygon fill="#586e75" stroke="#586e75" points="177.48,-21.5 187.48,-18 177.48,-14.5 177.48,-21.5"/>
<text text-anchor="middle" x="146.6" y="-21.2" font-family="Inter,Arial" font-size="11.00" fill="#586e75">_.sellerId</text>
</g>
<!-- SellerId&#45;&gt;FSeller -->
<g id="edge5" class="edge">
<title>SellerId&#45;&gt;FSeller</title>
<path fill="none" stroke="#586e75" d="M241.83,-30.66C260.91,-39.88 287.37,-52.68 310.6,-64 313.5,-65.41 316.49,-66.87 319.51,-68.35"/>
<polygon fill="#586e75" stroke="#586e75" points="318.03,-71.52 328.55,-72.77 321.1,-65.23 318.03,-71.52"/>
<text text-anchor="middle" x="285.1" y="-67.2" font-family="Inter,Arial" font-size="11.00" fill="#586e75">loadSeller</text>
</g>
</g>
</svg>
