<?xml version="1.0" encoding="UTF-8" standalone="no"?>
<!DOCTYPE svg PUBLIC "-//W3C//DTD SVG 1.1//EN"
 "http://www.w3.org/Graphics/SVG/1.1/DTD/svg11.dtd">
<!-- Generated by graphviz version 2.43.0 (0)
 -->
<!-- Title: %3 Pages: 1 -->
<svg width="847pt" height="188pt"
 viewBox="0.00 0.00 847.20 188.00" xmlns="http://www.w3.org/2000/svg" xmlns:xlink="http://www.w3.org/1999/xlink">
<g id="graph0" class="graph" transform="scale(1 1) rotate(0) translate(4 184)">
<title>%3</title>
<!-- Start -->
<!-- FSeller -->
<g id="node3" class="node start">
<title>FSeller</title>
<path fill="#586e75" stroke="#ffffff" d="M100.6,-180C100.6,-180 52.6,-180 52.6,-180 46.6,-180 40.6,-174 40.6,-168 40.6,-168 40.6,-156 40.6,-156 40.6,-150 46.6,-144 52.6,-144 52.6,-144 100.6,-144 100.6,-144 106.6,-144 112.6,-150 112.6,-156 112.6,-156 112.6,-168 112.6,-168 112.6,-174 106.6,-180 100.6,-180"/>
<text text-anchor="middle" x="76.6" y="-158.3" font-family="Inter,Arial" font-size="14.00" fill="#ffffff">F[Seller]</text>
</g>
<!-- Start&#45;&gt;FSeller -->
<g id="edge4" class="edge start">
<title>Start&#45;&gt;FSeller</title>
<path fill="none" stroke="#586e75" stroke-width="2" d="M3.62,-162C6.63,-162 17.55,-162 30.01,-162"/>
<polygon fill="#586e75" stroke="#586e75" stroke-width="2" points="30.21,-165.5 40.21,-162 30.21,-158.5 30.21,-165.5"/>
</g>
<!-- Goal -->
<!-- Seller -->
<g id="node4" class="node">
<title>Seller</title>
<path fill="#ffffff" stroke="#586e75" d="M91.6,-108C91.6,-108 61.6,-108 61.6,-108 55.6,-108 49.6,-102 49.6,-96 49.6,-96 49.6,-84 49.6,-84 49.6,-78 55.6,-72 61.6,-72 61.6,-72 91.6,-72 91.6,-72 97.6,-72 103.6,-78 103.6,-84 103.6,-84 103.6,-96 103.6,-96 103.6,-102 97.6,-108 91.6,-108"/>
<text text-anchor="middle" x="76.6" y="-86.3" font-family="Inter,Arial" font-size="14.00" fill="#586e75">Seller</text>
</g>
<!-- FSeller&#45;&gt;Seller -->
<!-- FListReview -->
<g id="node7" class="node goal">
<title>FListReview</title>
<path fill="#586e75" stroke="#ffffff" d="M786.6,-108C786.6,-108 693.6,-108 693.6,-108 687.6,-108 681.6,-102 681.6,-96 681.6,-96 681.6,-84 681.6,-84 681.6,-78 687.6,-72 693.6,-72 693.6,-72 786.6,-72 786.6,-72 792.6,-72 798.6,-78 798.6,-84 798.6,-84 798.6,-96 798.6,-96 798.6,-102 792.6,-108 786.6,-108"/>
<text text-anchor="middle" x="740.1" y="-86.3" font-family="Inter,Arial" font-size="14.00" fill="#ffffff">F[List[Review]]</text>
</g>
<!-- FSeller&#45;&gt;FListReview -->
<!-- ListUUID -->
<g id="node5" class="node">
<title>ListUUID</title>
<path fill="#ffffff" stroke="#586e75" d="M287.6,-108C287.6,-108 200.6,-108 200.6,-108 194.6,-108 188.6,-102 188.6,-96 188.6,-96 188.6,-84 188.6,-84 188.6,-78 194.6,-72 200.6,-72 200.6,-72 287.6,-72 287.6,-72 293.6,-72 299.6,-78 299.6,-84 299.6,-84 299.6,-96 299.6,-96 299.6,-102 293.6,-108 287.6,-108"/>
<text text-anchor="middle" x="244.1" y="-86.3" font-family="Inter,Arial" font-size="14.00" fill="#586e75">List[ReviewId]</text>
</g>
<!-- Seller&#45;&gt;ListUUID -->
<g id="edge7" class="edge">
<title>Seller&#45;&gt;ListUUID</title>
<path fill="none" stroke="#586e75" d="M103.82,-90C123.86,-90 152.36,-90 178.37,-90"/>
<polygon fill="#586e75" stroke="#586e75" points="178.57,-93.5 188.57,-90 178.57,-86.5 178.57,-93.5"/>
<text text-anchor="middle" x="150.6" y="-93.2" font-family="Inter,Arial" font-size="11.00" fill="#586e75">reviews</text>
</g>
<!-- ListFReview -->
<g id="node6" class="node">
<title>ListFReview</title>
<path fill="#ffffff" stroke="#586e75" d="M617.6,-108C617.6,-108 524.6,-108 524.6,-108 518.6,-108 512.6,-102 512.6,-96 512.6,-96 512.6,-84 512.6,-84 512.6,-78 518.6,-72 524.6,-72 524.6,-72 617.6,-72 617.6,-72 623.6,-72 629.6,-78 629.6,-84 629.6,-84 629.6,-96 629.6,-96 629.6,-102 623.6,-108 617.6,-108"/>
<text text-anchor="middle" x="571.1" y="-86.3" font-family="Inter,Arial" font-size="14.00" fill="#586e75">List[F[Review]]</text>
</g>
<!-- ListUUID&#45;&gt;ListFReview -->
<g id="edge8" class="edge">
<title>ListUUID&#45;&gt;ListFReview</title>
<path fill="none" stroke="#586e75" d="M299.86,-90C355.61,-90 442.15,-90 502.22,-90"/>
<polygon fill="#586e75" stroke="#586e75" points="502.37,-93.5 512.37,-90 502.37,-86.5 502.37,-93.5"/>
<text text-anchor="middle" x="406.1" y="-93.2" font-family="Inter,Arial" font-size="11.00" fill="#586e75">loadReview.lift</text>
</g>
<!-- UUID -->
<g id="node8" class="node">
<title>UUID</title>
<path fill="#ffffff" stroke="#586e75" d="M270.6,-36C270.6,-36 217.6,-36 217.6,-36 211.6,-36 205.6,-30 205.6,-24 205.6,-24 205.6,-12 205.6,-12 205.6,-6 211.6,0 217.6,0 217.6,0 270.6,0 270.6,0 276.6,0 282.6,-6 282.6,-12 282.6,-12 282.6,-24 282.6,-24 282.6,-30 276.6,-36 270.6,-36"/>
<text text-anchor="middle" x="244.1" y="-14.3" font-family="Inter,Arial" font-size="14.00" fill="#586e75">ReviewId</text>
</g>
<!-- ListUUID&#45;&gt;UUID -->
<g id="edge2" class="edge lift">
<title>ListUUID&#45;&gt;UUID</title>
<path fill="none" stroke="#586e75" stroke-dasharray="5,2" d="M244.1,-61.58C244.1,-53.03 244.1,-43.87 244.1,-36.17"/>
<polygon fill="#586e75" stroke="#586e75" points="240.6,-61.59 244.1,-71.59 247.6,-61.59 240.6,-61.59"/>
<text text-anchor="middle" x="235.1" y="-51.2" font-family="Inter,Arial" font-size="11.00" fill="#586e75">lift</text>
</g>
<!-- ListFReview&#45;&gt;FListReview -->
<!-- FReview -->
<g id="node9" class="node">
<title>FReview</title>
<path fill="#ffffff" stroke="#586e75" d="M600.6,-36C600.6,-36 541.6,-36 541.6,-36 535.6,-36 529.6,-30 529.6,-24 529.6,-24 529.6,-12 529.6,-12 529.6,-6 535.6,0 541.6,0 541.6,0 600.6,0 600.6,0 606.6,0 612.6,-6 612.6,-12 612.6,-12 612.6,-24 612.6,-24 612.6,-30 606.6,-36 600.6,-36"/>
<text text-anchor="middle" x="571.1" y="-14.3" font-family="Inter,Arial" font-size="14.00" fill="#586e75">F[Review]</text>
</g>
<!-- ListFReview&#45;&gt;FReview -->
<g id="edge3" class="edge lift">
<title>ListFReview&#45;&gt;FReview</title>
<path fill="none" stroke="#586e75" stroke-dasharray="5,2" d="M571.1,-61.58C571.1,-53.03 571.1,-43.87 571.1,-36.17"/>
<polygon fill="#586e75" stroke="#586e75" points="567.6,-61.59 571.1,-71.59 574.6,-61.59 567.6,-61.59"/>
<text text-anchor="middle" x="562.1" y="-51.2" font-family="Inter,Arial" font-size="11.00" fill="#586e75">lift</text>
</g>
<!-- FListReview&#45;&gt;Goal -->
<g id="edge5" class="edge goal">
<title>FListReview&#45;&gt;Goal</title>
<path fill="none" stroke="#586e75" stroke-width="2" d="M798.73,-90C808.84,-90 818.32,-90 825.24,-90"/>
<polygon fill="#586e75" stroke="#586e75" stroke-width="2" points="825.4,-93.5 835.4,-90 825.4,-86.5 825.4,-93.5"/>
</g>
<!-- UUID&#45;&gt;FReview -->
<g id="edge6" class="edge">
<title>UUID&#45;&gt;FReview</title>
<path fill="none" stroke="#586e75" d="M282.7,-18C341.15,-18 453.87,-18 519.43,-18"/>
<polygon fill="#586e75" stroke="#586e75" points="519.54,-21.5 529.54,-18 519.54,-14.5 519.54,-21.5"/>
<text text-anchor="middle" x="406.1" y="-21.2" font-family="Inter,Arial" font-size="11.00" fill="#586e75">loadReview</text>
</g>
</g>
</svg>
