<?xml version="1.0" encoding="UTF-8" standalone="no"?>
<!DOCTYPE svg PUBLIC "-//W3C//DTD SVG 1.1//EN"
 "http://www.w3.org/Graphics/SVG/1.1/DTD/svg11.dtd">
<!-- Generated by graphviz version 2.43.0 (0)
 -->
<!-- Title: %3 Pages: 1 -->
<svg width="847pt" height="188pt"
 viewBox="0.00 0.00 847.20 188.00" xmlns="http://www.w3.org/2000/svg" xmlns:xlink="http://www.w3.org/1999/xlink">
<g id="graph0" class="graph" transform="scale(1 1) rotate(0) translate(4 184)">
<title>%3</title>
<!-- Start -->
<!-- FSeller -->
<g id="node3" class="node start">
<title>FSeller</title>
<path fill="#586e75" stroke="#586e75" d="M100.6,-180C100.6,-180 52.6,-180 52.6,-180 46.6,-180 40.6,-174 40.6,-168 40.6,-168 40.6,-156 40.6,-156 40.6,-150 46.6,-144 52.6,-144 52.6,-144 100.6,-144 100.6,-144 106.6,-144 112.6,-150 112.6,-156 112.6,-156 112.6,-168 112.6,-168 112.6,-174 106.6,-180 100.6,-180"/>
<text text-anchor="middle" x="76.6" y="-158.3" font-family="Inter,Arial" font-size="14.00" fill="#ffffff">F[Seller]</text>
</g>
<!-- Start&#45;&gt;FSeller -->
<g id="edge4" class="edge start">
<title>Start&#45;&gt;FSeller</title>
<path fill="none" stroke="#586e75" stroke-width="2" d="M3.62,-162C6.63,-162 17.55,-162 30.01,-162"/>
<polygon fill="#586e75" stroke="#586e75" stroke-width="2" points="30.21,-165.5 40.21,-162 30.21,-158.5 30.21,-165.5"/>
</g>
<!-- Goal -->
<!-- Seller -->
<!-- FSeller&#45;&gt;Seller -->
<!-- FListReview -->
<!-- FSeller&#45;&gt;FListReview -->
<!-- ListUUID -->
<!-- Seller&#45;&gt;ListUUID -->
<!-- ListFReview -->
<!-- ListUUID&#45;&gt;ListFReview -->
<!-- UUID -->
<!-- ListUUID&#45;&gt;UUID -->
<!-- ListFReview&#45;&gt;FListReview -->
<!-- FReview -->
<!-- ListFReview&#45;&gt;FReview -->
<!-- FListReview&#45;&gt;Goal -->
<!-- UUID&#45;&gt;FReview -->
</g>
</svg>
