<?xml version="1.0" encoding="UTF-8" standalone="no"?>
<!DOCTYPE svg PUBLIC "-//W3C//DTD SVG 1.1//EN"
 "http://www.w3.org/Graphics/SVG/1.1/DTD/svg11.dtd">
<!-- Generated by graphviz version 2.43.0 (0)
 -->
<!-- Title: %3 Pages: 1 -->
<svg width="844pt" height="188pt"
 viewBox="0.00 0.00 844.20 188.00" xmlns="http://www.w3.org/2000/svg" xmlns:xlink="http://www.w3.org/1999/xlink">
<g id="graph0" class="graph" transform="scale(1 1) rotate(0) translate(4 184)">
<title>%3</title>
<!-- Start -->
<!-- FSeller -->
<g id="node3" class="node start">
<title>FSeller</title>
<path fill="#586e75" stroke="#586e75" d="M100.6,-180C100.6,-180 52.6,-180 52.6,-180 46.6,-180 40.6,-174 40.6,-168 40.6,-168 40.6,-156 40.6,-156 40.6,-150 46.6,-144 52.6,-144 52.6,-144 100.6,-144 100.6,-144 106.6,-144 112.6,-150 112.6,-156 112.6,-156 112.6,-168 112.6,-168 112.6,-174 106.6,-180 100.6,-180"/>
<text text-anchor="middle" x="76.6" y="-158.3" font-family="Inter,Arial" font-size="14.00" fill="#ffffff">F[Seller]</text>
</g>
<!-- Start&#45;&gt;FSeller -->
<g id="edge4" class="edge start">
<title>Start&#45;&gt;FSeller</title>
<path fill="none" stroke="#586e75" stroke-width="2" d="M3.62,-162C6.63,-162 17.55,-162 30.01,-162"/>
<polygon fill="#586e75" stroke="#586e75" stroke-width="2" points="30.21,-165.5 40.21,-162 30.21,-158.5 30.21,-165.5"/>
</g>
<!-- Goal -->
<!-- Seller -->
<g id="node4" class="node">
<title>Seller</title>
<path fill="#ffffff" stroke="#586e75" d="M91.6,-108C91.6,-108 61.6,-108 61.6,-108 55.6,-108 49.6,-102 49.6,-96 49.6,-96 49.6,-84 49.6,-84 49.6,-78 55.6,-72 61.6,-72 61.6,-72 91.6,-72 91.6,-72 97.6,-72 103.6,-78 103.6,-84 103.6,-84 103.6,-96 103.6,-96 103.6,-102 97.6,-108 91.6,-108"/>
<text text-anchor="middle" x="76.6" y="-86.3" font-family="Inter,Arial" font-size="14.00" fill="#586e75">Seller</text>
</g>
<!-- FSeller&#45;&gt;Seller -->
<g id="edge1" class="edge lift">
<title>FSeller&#45;&gt;Seller</title>
<path fill="none" stroke="#586e75" stroke-dasharray="5,2" d="M76.6,-133.58C76.6,-125.03 76.6,-115.87 76.6,-108.17"/>
<polygon fill="#586e75" stroke="#586e75" points="73.1,-133.59 76.6,-143.59 80.1,-133.59 73.1,-133.59"/>
<text text-anchor="middle" x="67.6" y="-123.2" font-family="Inter,Arial" font-size="11.00" fill="#586e75">lift</text>
</g>
<!-- FListReview -->
<g id="node7" class="node goal">
<title>FListReview</title>
<path fill="#586e75" stroke="#586e75" d="M783.6,-108C783.6,-108 690.6,-108 690.6,-108 684.6,-108 678.6,-102 678.6,-96 678.6,-96 678.6,-84 678.6,-84 678.6,-78 684.6,-72 690.6,-72 690.6,-72 783.6,-72 783.6,-72 789.6,-72 795.6,-78 795.6,-84 795.6,-84 795.6,-96 795.6,-96 795.6,-102 789.6,-108 783.6,-108"/>
<text text-anchor="middle" x="737.1" y="-86.3" font-family="Inter,Arial" font-size="14.00" fill="#ffffff">F[List[Review]]</text>
</g>
<!-- FSeller&#45;&gt;FListReview -->
<!-- ListUUID -->
<g id="node5" class="node">
<title>ListUUID</title>
<path fill="#ffffff" stroke="#586e75" d="M287.6,-108C287.6,-108 200.6,-108 200.6,-108 194.6,-108 188.6,-102 188.6,-96 188.6,-96 188.6,-84 188.6,-84 188.6,-78 194.6,-72 200.6,-72 200.6,-72 287.6,-72 287.6,-72 293.6,-72 299.6,-78 299.6,-84 299.6,-84 299.6,-96 299.6,-96 299.6,-102 293.6,-108 287.6,-108"/>
<text text-anchor="middle" x="244.1" y="-86.3" font-family="Inter,Arial" font-size="14.00" fill="#586e75">List[ReviewId]</text>
</g>
<!-- Seller&#45;&gt;ListUUID -->
<g id="edge7" class="edge">
<title>Seller&#45;&gt;ListUUID</title>
<path fill="none" stroke="#586e75" d="M103.82,-90C123.86,-90 152.36,-90 178.37,-90"/>
<polygon fill="#586e75" stroke="#586e75" points="178.57,-93.5 188.57,-90 178.57,-86.5 178.57,-93.5"/>
<text text-anchor="middle" x="150.6" y="-93.2" font-family="Inter,Arial" font-size="11.00" fill="#586e75">reviews</text>
</g>
<!-- ListFReview -->
<g id="node6" class="node">
<title>ListFReview</title>
<path fill="#ffffff" stroke="#586e75" d="M614.6,-108C614.6,-108 521.6,-108 521.6,-108 515.6,-108 509.6,-102 509.6,-96 509.6,-96 509.6,-84 509.6,-84 509.6,-78 515.6,-72 521.6,-72 521.6,-72 614.6,-72 614.6,-72 620.6,-72 626.6,-78 626.6,-84 626.6,-84 626.6,-96 626.6,-96 626.6,-102 620.6,-108 614.6,-108"/>
<text text-anchor="middle" x="568.1" y="-86.3" font-family="Inter,Arial" font-size="14.00" fill="#586e75">List[F[Review]]</text>
</g>
<!-- ListUUID&#45;&gt;ListFReview -->
<g id="edge8" class="edge">
<title>ListUUID&#45;&gt;ListFReview</title>
<path fill="none" stroke="#586e75" d="M299.72,-90C354.85,-90 440.09,-90 499.46,-90"/>
<polygon fill="#586e75" stroke="#586e75" points="499.49,-93.5 509.49,-90 499.49,-86.5 499.49,-93.5"/>
<text text-anchor="middle" x="404.6" y="-93.2" font-family="Inter,Arial" font-size="11.00" fill="#586e75">loadReview.lift</text>
</g>
<!-- UUID -->
<g id="node8" class="node">
<title>UUID</title>
<path fill="#ffffff" stroke="#586e75" d="M270.6,-36C270.6,-36 217.6,-36 217.6,-36 211.6,-36 205.6,-30 205.6,-24 205.6,-24 205.6,-12 205.6,-12 205.6,-6 211.6,0 217.6,0 217.6,0 270.6,0 270.6,0 276.6,0 282.6,-6 282.6,-12 282.6,-12 282.6,-24 282.6,-24 282.6,-30 276.6,-36 270.6,-36"/>
<text text-anchor="middle" x="244.1" y="-14.3" font-family="Inter,Arial" font-size="14.00" fill="#586e75">ReviewId</text>
</g>
<!-- ListUUID&#45;&gt;UUID -->
<g id="edge2" class="edge lift">
<title>ListUUID&#45;&gt;UUID</title>
<path fill="none" stroke="#586e75" stroke-dasharray="5,2" d="M244.1,-61.58C244.1,-53.03 244.1,-43.87 244.1,-36.17"/>
<polygon fill="#586e75" stroke="#586e75" points="240.6,-61.59 244.1,-71.59 247.6,-61.59 240.6,-61.59"/>
<text text-anchor="middle" x="235.1" y="-51.2" font-family="Inter,Arial" font-size="11.00" fill="#586e75">lift</text>
</g>
<!-- ListFReview&#45;&gt;FListReview -->
<g id="edge9" class="edge">
<title>ListFReview&#45;&gt;FListReview</title>
<path fill="none" stroke="#586e75" d="M627.04,-90C640.33,-90 654.57,-90 668.23,-90"/>
<polygon fill="#586e75" stroke="#586e75" points="668.55,-93.5 678.54,-90 668.54,-86.5 668.55,-93.5"/>
<text text-anchor="middle" x="652.6" y="-93.2" font-family="Inter,Arial" font-size="11.00" fill="#586e75">flip</text>
</g>
<!-- FReview -->
<g id="node9" class="node">
<title>FReview</title>
<path fill="#ffffff" stroke="#586e75" d="M597.6,-36C597.6,-36 538.6,-36 538.6,-36 532.6,-36 526.6,-30 526.6,-24 526.6,-24 526.6,-12 526.6,-12 526.6,-6 532.6,0 538.6,0 538.6,0 597.6,0 597.6,0 603.6,0 609.6,-6 609.6,-12 609.6,-12 609.6,-24 609.6,-24 609.6,-30 603.6,-36 597.6,-36"/>
<text text-anchor="middle" x="568.1" y="-14.3" font-family="Inter,Arial" font-size="14.00" fill="#586e75">F[Review]</text>
</g>
<!-- ListFReview&#45;&gt;FReview -->
<g id="edge3" class="edge lift">
<title>ListFReview&#45;&gt;FReview</title>
<path fill="none" stroke="#586e75" stroke-dasharray="5,2" d="M568.1,-61.58C568.1,-53.03 568.1,-43.87 568.1,-36.17"/>
<polygon fill="#586e75" stroke="#586e75" points="564.6,-61.59 568.1,-71.59 571.6,-61.59 564.6,-61.59"/>
<text text-anchor="middle" x="559.1" y="-51.2" font-family="Inter,Arial" font-size="11.00" fill="#586e75">lift</text>
</g>
<!-- FListReview&#45;&gt;Goal -->
<g id="edge5" class="edge goal">
<title>FListReview&#45;&gt;Goal</title>
<path fill="none" stroke="#586e75" stroke-width="2" d="M795.73,-90C805.84,-90 815.32,-90 822.24,-90"/>
<polygon fill="#586e75" stroke="#586e75" stroke-width="2" points="822.4,-93.5 832.4,-90 822.4,-86.5 822.4,-93.5"/>
</g>
<!-- UUID&#45;&gt;FReview -->
<g id="edge6" class="edge">
<title>UUID&#45;&gt;FReview</title>
<path fill="none" stroke="#586e75" d="M282.67,-18C340.54,-18 451.59,-18 516.49,-18"/>
<polygon fill="#586e75" stroke="#586e75" points="516.49,-21.5 526.49,-18 516.49,-14.5 516.49,-21.5"/>
<text text-anchor="middle" x="404.6" y="-21.2" font-family="Inter,Arial" font-size="11.00" fill="#586e75">loadReview</text>
</g>
</g>
</svg>
