<?xml version="1.0" encoding="UTF-8" standalone="no"?>
<!DOCTYPE svg PUBLIC "-//W3C//DTD SVG 1.1//EN"
 "http://www.w3.org/Graphics/SVG/1.1/DTD/svg11.dtd">
<!-- Generated by graphviz version 2.43.0 (0)
 -->
<!-- Title: %3 Pages: 1 -->
<svg width="462pt" height="116pt"
 viewBox="0.00 0.00 462.20 116.00" xmlns="http://www.w3.org/2000/svg" xmlns:xlink="http://www.w3.org/1999/xlink">
<g id="graph0" class="graph" transform="scale(1 1) rotate(0) translate(4 112)">
<title>%3</title>
<!-- Start -->
<!-- ListUUID -->
<g id="node3" class="node start">
<title>ListUUID</title>
<path fill="#586e75" stroke="#ffffff" d="M139.6,-108C139.6,-108 52.6,-108 52.6,-108 46.6,-108 40.6,-102 40.6,-96 40.6,-96 40.6,-84 40.6,-84 40.6,-78 46.6,-72 52.6,-72 52.6,-72 139.6,-72 139.6,-72 145.6,-72 151.6,-78 151.6,-84 151.6,-84 151.6,-96 151.6,-96 151.6,-102 145.6,-108 139.6,-108"/>
<text text-anchor="middle" x="96.1" y="-86.3" font-family="Inter,Arial" font-size="14.00" fill="#ffffff">List[ReviewId]</text>
</g>
<!-- Start&#45;&gt;ListUUID -->
<g id="edge3" class="edge start">
<title>Start&#45;&gt;ListUUID</title>
<path fill="none" stroke="#586e75" stroke-width="2" d="M3.84,-90C7.06,-90 17.43,-90 30.09,-90"/>
<polygon fill="#586e75" stroke="#586e75" stroke-width="2" points="30.14,-93.5 40.14,-90 30.14,-86.5 30.14,-93.5"/>
</g>
<!-- Goal -->
<!-- FListReview -->
<g id="node4" class="node goal">
<title>FListReview</title>
<path fill="#586e75" stroke="#ffffff" d="M401.6,-108C401.6,-108 308.6,-108 308.6,-108 302.6,-108 296.6,-102 296.6,-96 296.6,-96 296.6,-84 296.6,-84 296.6,-78 302.6,-72 308.6,-72 308.6,-72 401.6,-72 401.6,-72 407.6,-72 413.6,-78 413.6,-84 413.6,-84 413.6,-96 413.6,-96 413.6,-102 407.6,-108 401.6,-108"/>
<text text-anchor="middle" x="355.1" y="-86.3" font-family="Inter,Arial" font-size="14.00" fill="#ffffff">F[List[Review]]</text>
</g>
<!-- ListUUID&#45;&gt;FListReview -->
<g id="edge5" class="edge">
<title>ListUUID&#45;&gt;FListReview</title>
<path fill="none" stroke="#586e75" d="M151.6,-90C190.94,-90 244.32,-90 286.39,-90"/>
<polygon fill="#586e75" stroke="#586e75" points="286.55,-93.5 296.55,-90 286.55,-86.5 286.55,-93.5"/>
<text text-anchor="middle" x="224.1" y="-93.2" font-family="Inter,Arial" font-size="11.00" fill="#586e75">traverse(loadReview)</text>
</g>
<!-- UUID -->
<g id="node5" class="node">
<title>UUID</title>
<path fill="#ffffff" stroke="#586e75" d="M122.6,-36C122.6,-36 69.6,-36 69.6,-36 63.6,-36 57.6,-30 57.6,-24 57.6,-24 57.6,-12 57.6,-12 57.6,-6 63.6,0 69.6,0 69.6,0 122.6,0 122.6,0 128.6,0 134.6,-6 134.6,-12 134.6,-12 134.6,-24 134.6,-24 134.6,-30 128.6,-36 122.6,-36"/>
<text text-anchor="middle" x="96.1" y="-14.3" font-family="Inter,Arial" font-size="14.00" fill="#586e75">ReviewId</text>
</g>
<!-- ListUUID&#45;&gt;UUID -->
<g id="edge1" class="edge lift">
<title>ListUUID&#45;&gt;UUID</title>
<path fill="none" stroke="#586e75" stroke-dasharray="5,2" d="M96.1,-61.92C96.1,-53.37 96.1,-44.83 96.1,-36.28"/>
<polygon fill="#586e75" stroke="#586e75" points="92.6,-61.95 96.1,-71.95 99.6,-61.95 92.6,-61.95"/>
<text text-anchor="middle" x="74.6" y="-45.51" font-family="Inter,Arial" font-size="11.00" fill="#586e75">traverse</text>
</g>
<!-- FListReview&#45;&gt;Goal -->
<g id="edge4" class="edge goal">
<title>FListReview&#45;&gt;Goal</title>
<path fill="none" stroke="#586e75" stroke-width="2" d="M413.73,-90C423.84,-90 433.32,-90 440.24,-90"/>
<polygon fill="#586e75" stroke="#586e75" stroke-width="2" points="440.4,-93.5 450.4,-90 440.4,-86.5 440.4,-93.5"/>
</g>
<!-- FReview -->
<g id="node6" class="node">
<title>FReview</title>
<path fill="#ffffff" stroke="#586e75" d="M384.6,-36C384.6,-36 325.6,-36 325.6,-36 319.6,-36 313.6,-30 313.6,-24 313.6,-24 313.6,-12 313.6,-12 313.6,-6 319.6,0 325.6,0 325.6,0 384.6,0 384.6,0 390.6,0 396.6,-6 396.6,-12 396.6,-12 396.6,-24 396.6,-24 396.6,-30 390.6,-36 384.6,-36"/>
<text text-anchor="middle" x="355.1" y="-14.3" font-family="Inter,Arial" font-size="14.00" fill="#586e75">F[Review]</text>
</g>
<!-- FListReview&#45;&gt;FReview -->
<g id="edge2" class="edge lift">
<title>FListReview&#45;&gt;FReview</title>
<path fill="none" stroke="#586e75" stroke-dasharray="5,2" d="M355.1,-61.92C355.1,-53.37 355.1,-44.83 355.1,-36.28"/>
<polygon fill="#586e75" stroke="#586e75" points="351.6,-61.95 355.1,-71.95 358.6,-61.95 351.6,-61.95"/>
<text text-anchor="middle" x="333.6" y="-45.51" font-family="Inter,Arial" font-size="11.00" fill="#586e75">traverse</text>
</g>
<!-- UUID&#45;&gt;FReview -->
<g id="edge6" class="edge">
<title>UUID&#45;&gt;FReview</title>
<path fill="none" stroke="#586e75" d="M134.75,-18C179.26,-18 253.56,-18 303.19,-18"/>
<polygon fill="#586e75" stroke="#586e75" points="303.38,-21.5 313.38,-18 303.38,-14.5 303.38,-21.5"/>
<text text-anchor="middle" x="224.1" y="-21.2" font-family="Inter,Arial" font-size="11.00" fill="#586e75">loadReview</text>
</g>
</g>
</svg>
