<?xml version="1.0" encoding="UTF-8" standalone="no"?>
<!DOCTYPE svg PUBLIC "-//W3C//DTD SVG 1.1//EN"
 "http://www.w3.org/Graphics/SVG/1.1/DTD/svg11.dtd">
<!-- Generated by graphviz version 2.43.0 (0)
 -->
<!-- Title: %3 Pages: 1 -->
<svg width="632pt" height="116pt"
 viewBox="0.00 0.00 632.20 116.00" xmlns="http://www.w3.org/2000/svg" xmlns:xlink="http://www.w3.org/1999/xlink">
<g id="graph0" class="graph" transform="scale(1 1) rotate(0) translate(4 112)">
<title>%3</title>
<!-- Start -->
<!-- ListUUID -->
<g id="node3" class="node start">
<title>ListUUID</title>
<path fill="#586e75" stroke="#586e75" d="M139.6,-108C139.6,-108 52.6,-108 52.6,-108 46.6,-108 40.6,-102 40.6,-96 40.6,-96 40.6,-84 40.6,-84 40.6,-78 46.6,-72 52.6,-72 52.6,-72 139.6,-72 139.6,-72 145.6,-72 151.6,-78 151.6,-84 151.6,-84 151.6,-96 151.6,-96 151.6,-102 145.6,-108 139.6,-108"/>
<text text-anchor="middle" x="96.1" y="-86.3" font-family="Inter,Arial" font-size="14.00" fill="#ffffff">List[ReviewId]</text>
</g>
<!-- Start&#45;&gt;ListUUID -->
<g id="edge3" class="edge start">
<title>Start&#45;&gt;ListUUID</title>
<path fill="none" stroke="#586e75" stroke-width="2" d="M3.84,-90C7.06,-90 17.43,-90 30.09,-90"/>
<polygon fill="#586e75" stroke="#586e75" stroke-width="2" points="30.14,-93.5 40.14,-90 30.14,-86.5 30.14,-93.5"/>
</g>
<!-- Goal -->
<!-- ListFReview -->
<g id="node4" class="node">
<title>ListFReview</title>
<path fill="#ffffff" stroke="#586e75" d="M365.6,-108C365.6,-108 272.6,-108 272.6,-108 266.6,-108 260.6,-102 260.6,-96 260.6,-96 260.6,-84 260.6,-84 260.6,-78 266.6,-72 272.6,-72 272.6,-72 365.6,-72 365.6,-72 371.6,-72 377.6,-78 377.6,-84 377.6,-84 377.6,-96 377.6,-96 377.6,-102 371.6,-108 365.6,-108"/>
<text text-anchor="middle" x="319.1" y="-86.3" font-family="Inter,Arial" font-size="14.00" fill="#586e75">List[F[Review]]</text>
</g>
<!-- ListUUID&#45;&gt;ListFReview -->
<g id="edge6" class="edge">
<title>ListUUID&#45;&gt;ListFReview</title>
<path fill="none" stroke="#586e75" d="M151.73,-90C181.49,-90 218.58,-90 250.19,-90"/>
<polygon fill="#586e75" stroke="#586e75" points="250.24,-93.5 260.24,-90 250.24,-86.5 250.24,-93.5"/>
<text text-anchor="middle" x="206.1" y="-93.2" font-family="Inter,Arial" font-size="11.00" fill="#586e75">loadReview.lift</text>
</g>
<!-- UUID -->
<g id="node6" class="node">
<title>UUID</title>
<path fill="#ffffff" stroke="#586e75" d="M122.6,-36C122.6,-36 69.6,-36 69.6,-36 63.6,-36 57.6,-30 57.6,-24 57.6,-24 57.6,-12 57.6,-12 57.6,-6 63.6,0 69.6,0 69.6,0 122.6,0 122.6,0 128.6,0 134.6,-6 134.6,-12 134.6,-12 134.6,-24 134.6,-24 134.6,-30 128.6,-36 122.6,-36"/>
<text text-anchor="middle" x="96.1" y="-14.3" font-family="Inter,Arial" font-size="14.00" fill="#586e75">ReviewId</text>
</g>
<!-- ListUUID&#45;&gt;UUID -->
<g id="edge1" class="edge lift">
<title>ListUUID&#45;&gt;UUID</title>
<path fill="none" stroke="#586e75" stroke-dasharray="5,2" d="M96.1,-61.58C96.1,-53.03 96.1,-43.87 96.1,-36.17"/>
<polygon fill="#586e75" stroke="#586e75" points="92.6,-61.59 96.1,-71.59 99.6,-61.59 92.6,-61.59"/>
<text text-anchor="middle" x="87.1" y="-51.2" font-family="Inter,Arial" font-size="11.00" fill="#586e75">lift</text>
</g>
<!-- FListReview -->
<g id="node5" class="node goal">
<title>FListReview</title>
<path fill="#586e75" stroke="#586e75" d="M571.6,-108C571.6,-108 478.6,-108 478.6,-108 472.6,-108 466.6,-102 466.6,-96 466.6,-96 466.6,-84 466.6,-84 466.6,-78 472.6,-72 478.6,-72 478.6,-72 571.6,-72 571.6,-72 577.6,-72 583.6,-78 583.6,-84 583.6,-84 583.6,-96 583.6,-96 583.6,-102 577.6,-108 571.6,-108"/>
<text text-anchor="middle" x="525.1" y="-86.3" font-family="Inter,Arial" font-size="14.00" fill="#ffffff">F[List[Review]]</text>
</g>
<!-- ListFReview&#45;&gt;FListReview -->
<g id="edge7" class="edge">
<title>ListFReview&#45;&gt;FListReview</title>
<path fill="none" stroke="#586e75" d="M377.74,-90C402.08,-90 430.59,-90 455.96,-90"/>
<polygon fill="#586e75" stroke="#586e75" points="456.25,-93.5 466.25,-90 456.25,-86.5 456.25,-93.5"/>
<text text-anchor="middle" x="422.1" y="-93.2" font-family="Inter,Arial" font-size="11.00" fill="#586e75">sequence</text>
</g>
<!-- FReview -->
<g id="node7" class="node">
<title>FReview</title>
<path fill="#ffffff" stroke="#586e75" d="M348.6,-36C348.6,-36 289.6,-36 289.6,-36 283.6,-36 277.6,-30 277.6,-24 277.6,-24 277.6,-12 277.6,-12 277.6,-6 283.6,0 289.6,0 289.6,0 348.6,0 348.6,0 354.6,0 360.6,-6 360.6,-12 360.6,-12 360.6,-24 360.6,-24 360.6,-30 354.6,-36 348.6,-36"/>
<text text-anchor="middle" x="319.1" y="-14.3" font-family="Inter,Arial" font-size="14.00" fill="#586e75">F[Review]</text>
</g>
<!-- ListFReview&#45;&gt;FReview -->
<g id="edge2" class="edge lift">
<title>ListFReview&#45;&gt;FReview</title>
<path fill="none" stroke="#586e75" stroke-dasharray="5,2" d="M319.1,-61.58C319.1,-53.03 319.1,-43.87 319.1,-36.17"/>
<polygon fill="#586e75" stroke="#586e75" points="315.6,-61.59 319.1,-71.59 322.6,-61.59 315.6,-61.59"/>
<text text-anchor="middle" x="310.1" y="-51.2" font-family="Inter,Arial" font-size="11.00" fill="#586e75">lift</text>
</g>
<!-- FListReview&#45;&gt;Goal -->
<g id="edge4" class="edge goal">
<title>FListReview&#45;&gt;Goal</title>
<path fill="none" stroke="#586e75" stroke-width="2" d="M583.73,-90C593.84,-90 603.32,-90 610.24,-90"/>
<polygon fill="#586e75" stroke="#586e75" stroke-width="2" points="610.4,-93.5 620.4,-90 610.4,-86.5 610.4,-93.5"/>
</g>
<!-- UUID&#45;&gt;FReview -->
<g id="edge5" class="edge">
<title>UUID&#45;&gt;FReview</title>
<path fill="none" stroke="#586e75" d="M134.84,-18C171.36,-18 226.96,-18 267.34,-18"/>
<polygon fill="#586e75" stroke="#586e75" points="267.52,-21.5 277.52,-18 267.52,-14.5 267.52,-21.5"/>
<text text-anchor="middle" x="206.1" y="-21.2" font-family="Inter,Arial" font-size="11.00" fill="#586e75">loadReview</text>
</g>
</g>
</svg>
